<?xml version="1.0" encoding="utf-8"?>
<!-- Generator: Adobe Illustrator 16.0.3, SVG Export Plug-In . SVG Version: 6.00 Build 0)  -->
<!DOCTYPE svg PUBLIC "-//W3C//DTD SVG 1.1//EN" "http://www.w3.org/Graphics/SVG/1.1/DTD/svg11.dtd">
<svg version="1.1" xmlns="http://www.w3.org/2000/svg" xmlns:xlink="http://www.w3.org/1999/xlink" x="0px" y="0px"
	 width="121.485px" height="156.168px" viewBox="0 0 121.485 156.168" enable-background="new 0 0 121.485 156.168"
	 xml:space="preserve">
<g id="圖層_1">
	<g id="MdJWDv_2_">
		<g>
			<g>
				<path fill="#6F7561" d="M18.425,56.188c28.26,0,56.334,0,84.586,0c-0.392,5.439-0.756,10.76-1.162,16.077
					c-1,13.108-2.01,26.215-3.034,39.321c-0.487,6.241-0.859,12.496-1.565,18.712c-0.714,6.296-5.753,11.128-12.094,11.2
					c-16.287,0.184-32.58,0.184-48.867,0c-6.341-0.072-11.43-4.9-12.089-11.199c-0.883-8.447-1.435-16.929-2.095-25.399
					c-1.037-13.285-2.05-26.571-3.064-39.857C18.824,62.192,18.644,59.337,18.425,56.188z M41.896,98.241c0-8.496,0-16.992,0-25.488
					c0-3.959-0.981-5.629-3.331-5.668c-2.419-0.041-3.381,1.526-3.383,5.576c-0.004,16.992-0.004,33.984,0.005,50.977
					c0,0.98-0.216,2.146,0.226,2.896c0.608,1.033,1.717,2.394,2.668,2.439c1.112,0.053,2.494-0.963,3.354-1.891
					c0.539-0.582,0.442-1.854,0.445-2.817C41.908,115.591,41.896,106.916,41.896,98.241z M86.266,98.17
					c0-8.496,0.005-16.992-0.006-25.489c-0.001-0.98,0.238-2.172-0.22-2.892c-0.683-1.072-1.844-2.444-2.882-2.516
					c-1.05-0.072-2.374,1.125-3.235,2.076c-0.483,0.534-0.359,1.697-0.36,2.577c-0.017,17.439-0.018,34.879,0.004,52.318
					c0.001,0.963-0.1,2.233,0.437,2.819c0.855,0.932,2.23,1.956,3.342,1.91c0.95-0.039,2.069-1.392,2.681-2.42
					c0.445-0.748,0.232-1.915,0.233-2.895C86.271,115.163,86.266,106.667,86.266,98.17z M64.005,98.158
					c0-9.033,0.014-18.066-0.009-27.099c-0.007-2.559-1.262-4.064-3.315-3.941c-2.292,0.138-3.245,1.536-3.244,3.761
					c0.011,18.155-0.007,36.311,0.039,54.466c0.002,0.915,0.241,2.251,0.852,2.647c0.997,0.645,2.764,1.286,3.527,0.818
					c1.049-0.643,2.037-2.309,2.061-3.555C64.085,116.226,64.006,107.191,64.005,98.158z"/>
				<path fill="#6F7561" d="M12.55,49.41c2.419-6.307,3.347-13.056,9.205-17.357c5.858-4.302,12.637-3.014,19.495-3.339
					c0-2.37-0.042-4.582,0.009-6.791c0.108-4.638,2.711-7.298,7.381-7.338c8.056-0.07,16.113-0.07,24.168,0
					c4.668,0.041,7.269,2.699,7.38,7.339c0.051,2.135,0.009,4.273,0.009,6.834c7.801,0.167,15.887-1.171,21.895,5.447
					c3.909,4.305,4.664,9.911,6.843,15.205C76.742,49.41,44.839,49.41,12.55,49.41z M74.149,28.64c0-1.807-0.109-3.646,0.029-5.466
					c0.155-2.041-0.696-2.606-2.641-2.573c-5.798,0.099-11.6,0.035-17.4,0.035c-7.561,0-7.561,0-6.732,7.664
					c0.008,0.072,0.113,0.134,0.298,0.34C56.292,28.64,65.008,28.64,74.149,28.64z"/>
			</g>
		</g>
	</g>
</g>
<g id="圖層_2">
</g>
</svg>
