<?xml version="1.0" encoding="utf-8"?>
<!-- Generator: Adobe Illustrator 16.0.3, SVG Export Plug-In . SVG Version: 6.00 Build 0)  -->
<!DOCTYPE svg PUBLIC "-//W3C//DTD SVG 1.1//EN" "http://www.w3.org/Graphics/SVG/1.1/DTD/svg11.dtd">
<svg version="1.1" xmlns="http://www.w3.org/2000/svg" xmlns:xlink="http://www.w3.org/1999/xlink" x="0px" y="0px"
	 width="46.184px" height="46.184px" viewBox="0 0 46.184 46.184" enable-background="new 0 0 46.184 46.184" xml:space="preserve">
<g id="圖層_1">
</g>
<g id="圖層_2">
	<g>
		<path fill="#ED5358" d="M33.684,45.684H12.5c-6.6,0-12-5.4-12-12V12.5c0-6.6,5.4-12,12-12h21.184c6.6,0,12,5.4,12,12v21.184
			C45.684,40.283,40.283,45.684,33.684,45.684z"/>
		<path fill="none" stroke="#ED5358" stroke-miterlimit="10" d="M33.684,45.684H12.5c-6.6,0-12-5.4-12-12V12.5c0-6.6,5.4-12,12-12
			h21.184c6.6,0,12,5.4,12,12v21.184C45.684,40.283,40.283,45.684,33.684,45.684z"/>
	</g>
</g>
</svg>
