<?xml version="1.0" encoding="utf-8"?>
<!-- Generator: Adobe Illustrator 16.0.3, SVG Export Plug-In . SVG Version: 6.00 Build 0)  -->
<!DOCTYPE svg PUBLIC "-//W3C//DTD SVG 1.1//EN" "http://www.w3.org/Graphics/SVG/1.1/DTD/svg11.dtd">
<svg version="1.1" xmlns="http://www.w3.org/2000/svg" xmlns:xlink="http://www.w3.org/1999/xlink" x="0px" y="0px"
	 width="112.385px" height="112.446px" viewBox="0 0 112.385 112.446" enable-background="new 0 0 112.385 112.446"
	 xml:space="preserve">
<g id="圖層_1">
</g>
<g id="圖層_2">
	<g>
		<g>
			<path fill="#9C8CC4" d="M106.148,58.563c-4.728,0-13.28,2.416-13.28,2.416s-5.847-0.003-5.904-3.497h-0.005
				c0-0.008,0.002-0.016,0.002-0.024c0-0.008-0.002-0.016-0.002-0.024h0.005c0.057-3.494,5.904-3.497,5.904-3.497s10.637,0,15.365,0
				c3.599,0,4.089-4.131,4.119-6.106c-1.508-8.653-5.002-16.622-10.01-23.411c-1.643-1.31-4.293-5.313-6.371-3.236
				c-3.343,3.343-10.775,13.532-10.775,13.532s-4.137,4.132-6.648,1.702l-0.003,0.004c-0.006-0.006-0.009-0.013-0.016-0.019
				c-0.006-0.006-0.013-0.009-0.019-0.016l0.004-0.003c-2.43-2.511,1.702-6.648,1.702-6.648s7.521-7.521,10.864-10.865
				c2.077-2.077-1.504-6.792-2.813-8.435c-6.784-5.003-12.499-6.342-21.142-7.852c-1.527-0.049-6.71,0.082-6.71,4.114
				c0,4.728,0,15.365,0,15.365s-0.003,5.847-3.497,5.904v0.005c-0.008,0-0.016-0.002-0.024-0.003c-0.008,0-0.016,0.003-0.024,0.003
				v-0.005c-3.494-0.057-3.497-5.904-3.497-5.904s0-10.637,0-15.365c0-3.326-5.051-6.429-7.146-6.535
				c-8.189,1.442-14.235,7.1-20.773,11.701c-1.311,1.3-4.249,4.755-1.588,7.416c3.343,3.343,10.865,10.865,10.865,10.865
				s4.132,4.137,1.702,6.647l0.004,0.004c-0.006,0.006-0.013,0.009-0.019,0.015c-0.006,0.006-0.009,0.013-0.016,0.02l-0.004-0.004
				c-2.511,2.43-6.647-1.702-6.647-1.702s-7.521-7.521-10.864-10.864c-2.433-2.433-5.529-0.186-7.036,1.22
				C7.246,32.034,1.431,38.37,0,46.578c0.03,1.976,3.112,7.358,6.712,7.358c4.728,0,15.364,0,15.364,0s5.847,0.003,5.904,3.497
				h0.005c0,0.009-0.002,0.016-0.002,0.024c0,0.009,0.002,0.016,0.002,0.024H27.98c-0.057,3.494-5.904,3.497-5.904,3.497
				s-10.637,0-15.364,0c-3.6,0-4.089,4.132-4.119,6.107c1.37,7.857,2.056,12.701,6.348,19.06c0,0,7.01,7.854,10.353,4.51
				c3.343-3.343,10.864-10.864,10.864-10.864s4.137-4.132,6.648-1.702l0.003-0.004c0.006,0.006,0.009,0.013,0.016,0.019
				c0.006,0.006,0.013,0.01,0.019,0.016l-0.004,0.003c2.43,2.511-1.702,6.648-1.702,6.648s-10.156,6.532-13.499,9.875
				c-3.343,3.343,4.789,8.933,4.789,8.933s13.5,7.364,21.321,8.741c2.095-0.106,5.624-0.775,5.624-4.102c0-4.728,0-15.364,0-15.364
				s0.003-5.847,3.497-5.904v-0.005c0.008,0,0.016,0.002,0.024,0.002c0.009,0,0.016-0.002,0.024-0.002v0.005
				c3.494,0.057,3.497,5.904,3.497,5.904s-2.426,8.8-2.466,13.528c-0.035,4.174,7.062,6.634,9.176,5.951
				c8.199-1.433,15.778-4.653,22.326-9.251c1.405-1.507,3.652-4.604,1.22-7.036c-3.343-3.343-10.865-10.864-10.865-10.864
				s-4.132-4.137-1.702-6.648l-0.004-0.003c0.006-0.006,0.013-0.01,0.02-0.016c0.006-0.006,0.009-0.013,0.015-0.019l0.004,0.003
				c2.511-2.43,6.647,1.703,6.647,1.703s7.521,7.521,10.864,10.864c2.661,2.661,6.117-0.278,7.417-1.588
				c4.618-6.564,7.851-14.167,9.285-22.392C112.735,64.08,109.748,58.563,106.148,58.563z M57.473,69.014
				c-6.383,0-11.557-5.174-11.557-11.557c0-6.382,5.174-11.556,11.557-11.556c6.382,0,11.556,5.174,11.556,11.556
				C69.029,63.84,63.855,69.014,57.473,69.014z"/>
		</g>
		<g>
			<path fill="#C7B9E1" d="M105.657,58.403c-4.728,0-15.365,0-15.365,0s-5.847-0.003-5.904-3.497h-0.005
				c0-0.009,0.003-0.016,0.003-0.024c0-0.009-0.003-0.016-0.003-0.024h0.005c0.057-3.494,5.904-3.497,5.904-3.497s10.637,0,15.365,0
				c3.599,0,4.089-4.131,4.119-6.107c-1.508-8.653-5.001-16.621-10.01-23.411c-1.643-1.31-4.205-2.646-6.282-0.568
				C90.141,24.617,82.62,32.138,82.62,32.138s-4.137,4.132-6.647,1.702l-0.004,0.004c-0.006-0.006-0.009-0.013-0.015-0.019
				c-0.006-0.006-0.013-0.009-0.02-0.016l0.004-0.003c-2.43-2.511,1.702-6.648,1.702-6.648s7.522-7.521,10.865-10.864
				c2.077-2.077,0.741-4.639-0.568-6.282C81.152,5.008,73.192,1.517,64.549,0.006c-1.527-0.049-6.71,0.082-6.71,4.114
				c0,4.728,0,15.365,0,15.365s-0.003,5.847-3.497,5.904v0.005c-0.009,0-0.016-0.002-0.024-0.002c-0.009,0-0.016,0.002-0.024,0.002
				V25.39c-3.494-0.058-3.497-5.904-3.497-5.904s0-10.637,0-15.365c0-3.326-3.528-3.996-5.624-4.102
				c-8.189,1.442-15.758,4.667-22.296,9.268c-1.31,1.3-4.249,4.755-1.588,7.417c3.343,3.343,10.864,10.864,10.864,10.864
				s4.132,4.137,1.703,6.648l0.003,0.003c-0.006,0.006-0.013,0.009-0.019,0.015c-0.006,0.006-0.009,0.013-0.016,0.02l-0.003-0.004
				c-2.511,2.43-6.648-1.702-6.648-1.702s-7.521-7.521-10.864-10.864c-2.433-2.433-5.529-0.185-7.036,1.22
				c-4.603,6.555-7.825,14.142-9.256,22.351c0.03,1.976,0.52,6.107,4.119,6.107c4.728,0,15.365,0,15.365,0s5.847,0.003,5.904,3.497
				h0.005c0,0.008-0.002,0.016-0.002,0.024c0,0.008,0.002,0.016,0.002,0.024h-0.005C25.348,58.4,19.5,58.403,19.5,58.403
				s-10.637,0-15.365,0c-3.599,0-4.089,4.132-4.119,6.107c1.648,10.198,8.758,21.416,8.758,21.416s4.601,5.498,7.943,2.155
				c3.343-3.343,10.864-10.865,10.864-10.865s4.137-4.132,6.648-1.702l0.003-0.003c0.006,0.006,0.01,0.013,0.016,0.019
				c0.006,0.006,0.013,0.01,0.019,0.016l-0.003,0.004c2.43,2.511-1.703,6.647-1.703,6.647s-7.486,7.557-10.864,10.864
				c-3.697,3.62,2.154,7.943,2.154,7.943s13.5,7.364,21.321,8.741c2.095-0.106,5.624-0.775,5.624-4.102c0-4.728,0-15.364,0-15.364
				s0.003-5.847,3.497-5.904v-0.005c0.008,0,0.016,0.002,0.024,0.003c0.008,0,0.016-0.003,0.024-0.003v0.005
				c3.494,0.057,3.497,5.904,3.497,5.904s0,10.637,0,15.364c0,4.034,5.184,4.164,6.71,4.115c8.199-1.433,15.778-4.653,22.326-9.251
				c1.405-1.507,3.653-4.604,1.22-7.037C84.752,90.126,77.23,82.605,77.23,82.605s-4.132-4.137-1.702-6.647l-0.003-0.004
				c0.006-0.006,0.013-0.009,0.019-0.016c0.006-0.006,0.009-0.013,0.015-0.019l0.004,0.003c2.511-2.43,6.647,1.702,6.647,1.702
				s7.521,7.521,10.865,10.865c2.661,2.661,6.116-0.278,7.416-1.588c4.618-6.564,7.852-14.166,9.285-22.392
				C109.747,62.534,109.256,58.403,105.657,58.403z M54.896,66.438c-6.382,0-11.557-5.174-11.557-11.556
				c0-6.383,5.174-11.557,11.557-11.557s11.557,5.174,11.557,11.557C66.453,61.264,61.279,66.438,54.896,66.438z"/>
		</g>
	</g>
</g>
</svg>
