<?xml version="1.0" encoding="utf-8"?>
<!-- Generator: Adobe Illustrator 16.0.3, SVG Export Plug-In . SVG Version: 6.00 Build 0)  -->
<!DOCTYPE svg PUBLIC "-//W3C//DTD SVG 1.1//EN" "http://www.w3.org/Graphics/SVG/1.1/DTD/svg11.dtd">
<svg version="1.1" xmlns="http://www.w3.org/2000/svg" xmlns:xlink="http://www.w3.org/1999/xlink" x="0px" y="0px" width="71.88px"
	 height="80.032px" viewBox="0 0 71.88 80.032" enable-background="new 0 0 71.88 80.032" xml:space="preserve">
<g id="圖層_1">
</g>
<g id="圖層_2">
	<g>
		<path fill="#F6CC22" d="M67.148,65.698L57.547,75.3c-6.309,6.309-16.538,6.309-22.847,0L24.162,64.762
			c-3.125-3.125-6.826-8.247-10.06-7.894c-2.189,0.239-5.709-2.029-3.509-3.547c17.167-11.84,31.188-32.157,31.188-32.157
			c1.016-1.016,2.664-1.016,3.68,0l21.687,21.688C73.458,49.161,73.458,59.39,67.148,65.698z"/>
		<path fill="#999999" d="M41.594,48.247h-2.971c-2.156,0-3.92-1.764-3.92-3.92v-2.972c0-2.156,1.764-3.92,3.92-3.92h2.971
			c2.156,0,3.92,1.764,3.92,3.92v2.972C45.514,46.483,43.75,48.247,41.594,48.247z"/>
		<path fill="none" stroke="#CCCCCC" stroke-width="4" stroke-linecap="round" stroke-linejoin="round" stroke-miterlimit="10" d="
			M40.172,42.717V11.503C40.172,6.276,43.341,2,47.214,2h0.388c3.874,0,7.043,4.276,7.043,9.503v31.213"/>
		<polygon fill="#F6CC22" points="51.55,27.372 59.495,35.219 59.135,46.923 49.522,46.662 49.065,32.799 		"/>
		<path fill="#29ABE2" d="M10.593,53.321c-0.065-0.055,13.885-10.532,11.618-9.915C5.676,47.912,1.486,56.242,0.617,58.571
			C0.225,59.334,0,60.197,0,61.113c0,3.082,2.499,5.58,5.58,5.58s5.58-2.499,5.58-5.58c0-1.156-0.352-2.23-0.954-3.121l0.147-0.018
			C8.087,54.661,10.593,53.321,10.593,53.321z"/>
	</g>
</g>
</svg>
