<?xml version="1.0" encoding="utf-8"?>
<!-- Generator: Adobe Illustrator 16.0.3, SVG Export Plug-In . SVG Version: 6.00 Build 0)  -->
<!DOCTYPE svg PUBLIC "-//W3C//DTD SVG 1.1//EN" "http://www.w3.org/Graphics/SVG/1.1/DTD/svg11.dtd">
<svg version="1.1" xmlns="http://www.w3.org/2000/svg" xmlns:xlink="http://www.w3.org/1999/xlink" x="0px" y="0px"
	 width="36.167px" height="38.009px" viewBox="0 0 36.167 38.009" enable-background="new 0 0 36.167 38.009" xml:space="preserve">
<g id="圖層_1">
</g>
<g id="圖層_2">
	<path fill="#CCCCCC" d="M18.207,32.009C11.476,32.009,6,26.533,6,19.802c0-6.731,5.476-12.207,12.207-12.207
		c2.407,0,4.731,0.716,6.713,2.025l-5.725,5.725h15.345V0l-5.316,5.316c-3.159-2.405-7.015-3.721-11.018-3.721
		C8.167,1.595,0,9.763,0,19.802c0,10.039,8.167,18.207,18.207,18.207c8.943,0,16.496-6.395,17.96-15.205l-5.919-0.983
		C29.268,27.724,24.203,32.009,18.207,32.009z"/>
</g>
</svg>
